<svg width="118" height="26" viewBox="0 0 118 26" fill="none" xmlns="http://www.w3.org/2000/svg">
<g clip-path="url(#clip0_1_10312)">
<path d="M8.92543 14.1625L15.8714 25.1309C15.9535 25.2564 16.0664 25.3583 16.1992 25.4267C16.332 25.495 16.4801 25.5275 16.629 25.5209H19.2023C19.3184 25.5223 19.4336 25.5003 19.5412 25.4562C19.6488 25.412 19.7465 25.3468 19.8287 25.2641C19.9109 25.1814 19.9759 25.083 20.0199 24.9747C20.0639 24.8664 20.086 24.7503 20.0849 24.6333V1.4045C20.0832 1.21924 20.0246 1.03908 19.9172 0.888717C19.8099 0.738352 19.6589 0.625148 19.4853 0.564631C19.3115 0.504114 19.1235 0.499247 18.9469 0.550699C18.7704 0.60215 18.6139 0.707399 18.499 0.852013L8.92543 13.0961C8.8217 13.2542 8.76639 13.4397 8.76639 13.6293C8.76639 13.8188 8.8217 14.0043 8.92543 14.1625Z" fill="white"/>
<path d="M1.11699 25.5171H5.69928C5.81539 25.5185 5.9306 25.4964 6.03816 25.4523C6.14571 25.4082 6.24346 25.3429 6.32566 25.2603C6.40786 25.1776 6.47287 25.0792 6.51683 24.9709C6.56086 24.8626 6.58299 24.7465 6.58188 24.6295V18.739C6.57909 18.554 6.51969 18.3743 6.41194 18.2245C6.30417 18.0748 6.15321 17.9621 5.97963 17.902C5.80604 17.8418 5.61827 17.837 5.4419 17.8883C5.26553 17.9395 5.10913 18.0444 4.994 18.1885L0.411716 24.079C0.313906 24.2123 0.254432 24.3702 0.239831 24.5353C0.22523 24.7004 0.256065 24.8664 0.328949 25.015C0.401833 25.1637 0.513946 25.2891 0.65297 25.3777C0.791993 25.4663 0.952548 25.5145 1.11699 25.5171Z" fill="white"/>
<path d="M82.9613 12.2733C82.9092 12.2087 82.8516 12.1482 82.7902 12.0925L82.6953 12.0113L82.6469 11.9686C82.4287 11.7833 82.1912 11.6213 81.9395 11.4852C81.6667 11.3203 81.3777 11.1842 81.0776 11.0789C80.7701 10.9682 80.4539 10.884 80.1321 10.8271C79.3018 10.6782 78.4487 10.722 77.6376 10.955C77.1528 11.0932 76.6871 11.2918 76.2512 11.5461C75.8228 11.7991 75.4278 12.1063 75.0763 12.4602C74.7259 12.8172 74.4172 13.213 74.1555 13.6403C73.8895 14.0706 73.6861 14.5371 73.551 15.0255C73.2651 16.0358 73.2651 17.1067 73.551 18.117C73.6892 18.6036 73.8926 19.069 74.1555 19.5003C74.4172 19.9275 74.7259 20.3234 75.0763 20.6804C75.4297 21.0347 75.8253 21.3425 76.255 21.5965C76.6921 21.8436 77.1552 22.0411 77.6358 22.1855C78.4673 22.4357 79.3465 22.4796 80.199 22.3135C80.5264 22.2589 80.847 22.1669 81.1539 22.0393C81.4484 21.9181 81.733 21.7749 82.0064 21.6107C82.2774 21.4477 82.5391 21.268 82.7883 21.0724C82.8596 21.0094 82.9272 20.9416 82.9898 20.8693L83.0221 20.8328C83.0816 20.761 83.1269 20.6781 83.1548 20.589L83.1672 20.5159C83.1734 20.3989 83.1461 20.2825 83.0884 20.1807L83.0599 20.136C83.0382 20.1001 83.0134 20.0661 82.9855 20.0345L82.9111 19.9329C82.7617 19.7298 82.6209 19.5267 82.4696 19.3398C82.4057 19.2656 82.3258 19.2073 82.2359 19.1692C82.1466 19.1387 82.0492 19.1387 81.9599 19.1692C81.8316 19.2268 81.715 19.3073 81.6152 19.4068L81.4825 19.5206C81.3511 19.6303 81.281 19.7014 81.0975 19.8313C80.9325 19.9581 80.754 20.0665 80.5655 20.1543C80.3621 20.2588 80.1463 20.3353 79.9225 20.3818C79.1871 20.5423 78.4207 20.4611 77.7344 20.1503C77.2929 19.95 76.8924 19.6698 76.5513 19.3236C76.2016 18.9696 75.922 18.5519 75.7273 18.0926C75.5202 17.6266 75.4129 17.1216 75.4129 16.6109C75.4129 16.1002 75.5202 15.5952 75.7273 15.1292C75.9238 14.6675 76.2022 14.2462 76.5495 13.886C76.8948 13.5377 77.296 13.2506 77.7362 13.037C78.3736 12.7321 79.0929 12.6465 79.7836 12.7933C80.0149 12.8467 80.2412 12.9187 80.4607 13.0086C80.6703 13.0982 80.8724 13.2041 81.0652 13.3255C81.4682 13.5651 81.9234 14.2517 82.3648 13.7073L83.0035 12.842C83.0339 12.8006 83.0549 12.7535 83.0661 12.7036C83.0779 12.6537 83.0791 12.602 83.0704 12.5515C83.0593 12.4507 83.0214 12.3547 82.9613 12.2733Z" fill="white"/>
<path d="M43.6673 21.481L36.6791 5.45275C36.6322 5.33373 36.5511 5.23151 36.4464 5.15915C36.3415 5.08679 36.2177 5.04757 36.0906 5.04651H34.9703C34.845 5.04601 34.7224 5.083 34.618 5.15278C34.5136 5.22257 34.4322 5.32202 34.3839 5.43853L27.3815 21.4627C27.3334 21.5607 27.3117 21.6698 27.3188 21.7789C27.3259 21.888 27.3614 21.9933 27.4218 22.0842C27.4789 22.177 27.5588 22.2535 27.6538 22.3061C27.7487 22.3588 27.8555 22.3859 27.9638 22.3848H28.9976C29.1236 22.3874 29.2473 22.3513 29.3524 22.2813C29.4575 22.2112 29.539 22.1106 29.586 21.9928L31.2665 18.038H39.7601L41.4306 21.9928C41.4776 22.1122 41.559 22.2146 41.6642 22.287C41.7694 22.3593 41.8937 22.3984 42.021 22.399H43.0286C43.133 22.4057 43.2375 22.386 43.3326 22.3417C43.4276 22.2973 43.5101 22.2298 43.5727 22.1452C43.6463 22.0533 43.6939 21.9431 43.7106 21.8262C43.7273 21.7093 43.7124 21.59 43.6673 21.481ZM32.1613 15.9967L32.1895 15.9337L35.5567 8.03441L38.934 15.9967H32.1613Z" fill="white"/>
<path d="M107.652 14.782C107.478 14.1618 107.206 13.574 106.846 13.0413C106.58 12.6828 106.275 12.3563 105.935 12.0683C105.613 11.7795 105.248 11.5437 104.853 11.3696C104.467 11.1755 104.063 11.0243 103.644 10.9187C102.71 10.6868 101.732 10.7057 100.807 10.9735C100.332 11.1065 99.8779 11.3047 99.4569 11.5625C99.0402 11.824 98.6558 12.1335 98.3104 12.4847C97.9713 12.8357 97.6829 13.2337 97.456 13.6668C97.2142 14.1079 97.0294 14.5782 96.906 15.0663C96.6903 15.8437 96.6475 16.6593 96.7808 17.455C96.8155 17.766 96.875 18.0737 96.9581 18.3752C97.1317 18.9969 97.4039 19.586 97.7642 20.12C98.0295 20.4779 98.3352 20.8036 98.675 21.0909C98.998 21.3802 99.3639 21.6166 99.7588 21.7917C100.144 21.986 100.55 22.1366 100.968 22.2406C102.393 22.5917 103.898 22.3602 105.153 21.5967C105.57 21.3358 105.954 21.027 106.3 20.6765C106.629 20.3395 106.907 19.9548 107.124 19.535L107.142 19.4944C107.183 19.4392 107.207 19.3736 107.213 19.305C107.219 19.2365 107.205 19.1677 107.174 19.1064C107.149 19.0599 107.112 19.0207 107.067 18.9929C107.023 18.9651 106.971 18.9497 106.918 18.948H105.248C105.178 18.9464 105.108 18.961 105.044 18.991C104.98 19.0209 104.924 19.0653 104.879 19.1207C104.669 19.3779 104.423 19.6036 104.15 19.791C103.857 19.9794 103.539 20.1238 103.205 20.2195C102.463 20.436 101.673 20.4133 100.946 20.1545C100.559 20.0127 100.194 19.8128 99.8661 19.5614C99.5468 19.3061 99.282 18.9892 99.0861 18.6291C98.9149 18.2399 98.794 17.8303 98.7252 17.4103L98.7153 17.3576H98.7717L107.356 17.3393C107.708 17.3393 107.908 17.1199 107.908 16.7299C107.932 16.0708 107.845 15.4123 107.652 14.782ZM105.825 15.5478L98.8784 15.5803L98.8963 15.5213C99.0123 15.126 99.1853 14.7502 99.4104 14.4062C99.685 13.9979 100.033 13.6457 100.438 13.3683C100.733 13.1777 101.054 13.0319 101.391 12.9357C102.132 12.7192 102.922 12.7419 103.65 13.0007C104.038 13.1425 104.402 13.3424 104.73 13.5937C105.051 13.8505 105.317 14.1696 105.512 14.5322C105.682 14.8311 105.804 15.1554 105.873 15.4929L105.885 15.5478H105.825Z" fill="white"/>
<path d="M55.9996 20.6663C56.3455 20.3095 56.6491 19.9135 56.9044 19.4862C57.1571 19.0469 57.3541 18.5774 57.4908 18.0887C57.775 17.0788 57.775 16.0092 57.4908 14.9992C57.3541 14.5106 57.1571 14.0411 56.9044 13.6018C56.3986 12.7344 55.6814 12.0114 54.8208 11.5016C54.3899 11.2499 53.9305 11.0515 53.4526 10.9104C52.2198 10.5507 50.9013 10.6341 49.7227 11.1461C49.2266 11.3736 48.7636 11.6681 48.3464 12.0216L48.2718 12.0845V11.4589C48.2805 11.3814 48.2718 11.3029 48.2462 11.2292C48.2206 11.1556 48.1788 11.0887 48.124 11.0336C48.0691 10.9786 48.0026 10.9367 47.9295 10.9111C47.8564 10.8856 47.7784 10.877 47.7015 10.8861H46.823C46.7453 10.8767 46.6666 10.8849 46.5924 10.9101C46.5183 10.9354 46.4507 10.9769 46.3945 11.0317C46.3383 11.0866 46.295 11.1534 46.2677 11.2274C46.2403 11.3012 46.2297 11.3803 46.2366 11.4589V24.942C46.2341 25.0166 46.2467 25.0909 46.2733 25.1605C46.2999 25.2302 46.3402 25.2937 46.3918 25.3474C46.4433 25.401 46.505 25.4437 46.5732 25.4727C46.6413 25.5019 46.7147 25.5169 46.7887 25.5168H47.6854C47.8431 25.5215 47.9965 25.464 48.1126 25.3564C48.1651 25.303 48.2062 25.2395 48.2336 25.1697C48.2609 25.0999 48.274 25.0252 48.2718 24.9501V21.0095L48.3464 21.0725C48.7577 21.4216 49.2155 21.7108 49.7066 21.9317C50.8845 22.4436 52.2023 22.5269 53.4345 22.1674C53.9193 22.0295 54.3851 21.8309 54.8208 21.5763C55.2512 21.3257 55.6474 21.0198 55.9996 20.6663ZM53.3337 20.1016C52.8875 20.3109 52.4012 20.4194 51.9091 20.4194C51.4169 20.4194 50.9306 20.3109 50.4844 20.1016C50.0363 19.8983 49.6339 19.6053 49.3015 19.2404C48.9602 18.8796 48.6871 18.459 48.4955 17.9994C48.302 17.5339 48.2024 17.0344 48.2024 16.5297C48.2024 16.0252 48.302 15.5256 48.4955 15.0602C48.69 14.6088 48.963 14.1961 49.3015 13.8415C49.6403 13.4882 50.0414 13.2016 50.4844 12.9965C50.9304 12.7878 51.4163 12.6797 51.908 12.6797C52.3998 12.6797 52.8856 12.7878 53.3317 12.9965C53.7681 13.2038 54.1635 13.4894 54.4984 13.8394C54.8314 14.1952 55.0988 14.6079 55.2883 15.0582C55.4828 15.5229 55.583 16.0223 55.583 16.5267C55.583 17.0312 55.4828 17.5305 55.2883 17.9953C55.095 18.4525 54.8273 18.874 54.4964 19.2424C54.1678 19.6021 53.7729 19.8939 53.3337 20.1016Z" fill="white"/>
<path d="M61.5351 10.9023H60.6566C60.578 10.8927 60.4982 10.9011 60.4233 10.9268C60.3484 10.9526 60.2802 10.9951 60.2238 11.0512C60.1674 11.1072 60.1243 11.1753 60.0977 11.2505C60.0711 11.3257 60.0617 11.406 60.0702 11.4853V24.9501C60.0684 25.0251 60.0816 25.0997 60.1089 25.1695C60.1362 25.2393 60.1772 25.3029 60.2294 25.3563C60.281 25.4082 60.3423 25.449 60.4097 25.4766C60.4773 25.5042 60.5495 25.5179 60.6223 25.5169H61.517C61.6748 25.5216 61.828 25.464 61.9442 25.3563C61.9971 25.3034 62.0384 25.2399 62.0658 25.17C62.0932 25.1001 62.106 25.0252 62.1034 24.9501V21.0096L62.178 21.0725C62.5899 21.422 63.0481 21.7113 63.5405 21.9317C64.7179 22.4438 66.0361 22.5271 67.2681 22.1674C67.753 22.0292 68.2187 21.8306 68.6545 21.5763C69.0842 21.3212 69.4804 21.012 69.8332 20.6562C70.1786 20.2993 70.4812 19.9033 70.736 19.476C70.9884 19.0367 71.1855 18.5673 71.3226 18.0786C71.6084 17.0689 71.6084 15.9987 71.3226 14.9891C71.1862 14.5003 70.989 14.0307 70.736 13.5917C70.2313 12.7239 69.5145 12.0008 68.6545 11.4914C68.2224 11.2402 67.7623 11.0417 67.2843 10.9003C66.0516 10.5408 64.7328 10.6241 63.5541 11.1359C63.0581 11.3634 62.5949 11.6579 62.178 12.0113L62.0974 12.0947V11.4853C62.1075 11.4077 62.1001 11.3288 62.0757 11.2546C62.0512 11.1803 62.0104 11.1126 61.9564 11.0565C61.9022 11.0004 61.8363 10.9574 61.7633 10.9307C61.6904 10.904 61.6123 10.8943 61.5351 10.9023ZM62.3289 15.0744C62.5242 14.6232 62.797 14.2106 63.1349 13.8557C63.4723 13.5001 63.8722 13.2108 64.3136 13.0026C64.7601 12.7939 65.2456 12.6858 65.7379 12.6858C66.2296 12.6858 66.7151 12.7939 67.1615 13.0026C67.6036 13.2092 68.0041 13.4956 68.3439 13.8476C68.6769 14.2034 68.9447 14.6161 69.1338 15.0663C69.3292 15.531 69.4296 16.0303 69.4296 16.5348C69.4296 17.0393 69.3292 17.5387 69.1338 18.0034C68.9429 18.4623 68.675 18.8848 68.342 19.2526C68.0134 19.612 67.6185 19.9038 67.1795 20.1118C66.7324 20.3206 66.2463 20.4287 65.754 20.4287C65.2611 20.4287 64.775 20.3206 64.3279 20.1118C63.8809 19.9077 63.4791 19.6148 63.1474 19.2506C62.8057 18.89 62.5323 18.4694 62.3413 18.0095C62.1465 17.5454 62.0453 17.047 62.0432 16.5432C62.0411 16.0393 62.1383 15.5401 62.3289 15.0744Z" fill="white"/>
<path d="M94.54 11.3187C94.548 11.2399 94.5381 11.1603 94.5114 11.0859C94.4842 11.0114 94.4414 10.9441 94.385 10.889C94.3285 10.8338 94.2603 10.7923 94.1853 10.7675C94.1109 10.7427 94.0315 10.7354 93.9534 10.7459H93.0692C92.9923 10.7369 92.9142 10.7454 92.8411 10.771C92.7679 10.7965 92.7015 10.8384 92.6464 10.8935C92.5918 10.9485 92.5503 11.0154 92.5242 11.089C92.4988 11.1627 92.4901 11.2412 92.4988 11.3187V17.782C92.5062 18.1607 92.4244 18.5358 92.2607 18.8768C92.1206 19.1887 91.9141 19.466 91.6568 19.6893C91.405 19.8984 91.1211 20.0639 90.816 20.1788C90.4737 20.3066 90.1098 20.3629 89.7452 20.344C89.3806 20.3251 89.0235 20.2316 88.6961 20.0691C88.3861 19.9072 88.117 19.675 87.9105 19.3907C87.7046 19.1202 87.5583 18.8085 87.4814 18.4767C87.3971 18.1391 87.3524 17.7928 87.3481 17.4448V11.4852C87.358 11.2904 87.3121 11.0967 87.2173 10.9267C87.1454 10.8524 87.0579 10.7956 86.9612 10.7604C86.8645 10.7252 86.7616 10.7126 86.6592 10.7235H86.0225C85.9276 10.7204 85.8327 10.7367 85.7447 10.7717C85.656 10.8066 85.576 10.8594 85.5085 10.9267C85.4378 11.006 85.3832 11.0989 85.3491 11.1997C85.3144 11.3005 85.3001 11.4072 85.3069 11.5137V17.4631C85.2995 18.1129 85.3962 18.7597 85.5934 19.3785C85.7788 19.9549 86.0721 20.4899 86.4577 20.9547C86.8428 21.4095 87.3252 21.7707 87.8683 22.0109C88.8126 22.399 89.85 22.4987 90.8507 22.2974C91.1204 22.2317 91.3846 22.1413 91.6382 22.0272C91.875 21.9164 92.0945 21.7714 92.2892 21.5965L92.4281 21.4665L92.505 21.3914V21.8444C92.5031 21.9111 92.5143 21.9775 92.5385 22.0397C92.5633 22.1018 92.5992 22.1584 92.6457 22.2059C92.6991 22.2726 92.7673 22.3257 92.8448 22.361C92.9217 22.3962 93.0066 22.4127 93.0909 22.409H93.9856C94.0588 22.4105 94.1307 22.3973 94.1983 22.3701C94.2659 22.3429 94.3273 22.3022 94.3788 22.2506C94.4352 22.2002 94.4792 22.1373 94.5071 22.0667C94.535 21.9962 94.5462 21.92 94.54 21.8444V11.3187Z" fill="white"/>
<path d="M117.034 17.644C116.848 17.2513 116.579 16.9047 116.244 16.6285C115.879 16.3283 115.472 16.084 115.035 15.9033C114.542 15.6968 114.031 15.5377 113.508 15.428C113.253 15.3698 113.002 15.2931 112.759 15.1985C112.538 15.1174 112.328 15.0097 112.134 14.8776C111.871 14.7178 111.667 14.476 111.553 14.189C111.487 13.9782 111.487 13.7518 111.553 13.541C111.624 13.3034 111.922 12.6493 113.075 12.5762C114.177 12.5072 114.731 13.0901 114.922 13.3501C114.951 13.3867 115.221 13.7381 115.414 13.9595C115.449 13.9912 115.488 14.0185 115.529 14.0407C115.608 14.0716 115.694 14.082 115.778 14.071C115.862 14.06 115.942 14.028 116.011 13.9777L116.684 13.474C116.757 13.43 116.817 13.3675 116.859 13.2927C116.902 13.2179 116.924 13.1334 116.923 13.0475V13.0272C116.894 12.8966 116.842 12.7722 116.77 12.6595C116.572 12.3722 116.356 12.0969 116.125 11.8348C115.92 11.591 115.68 11.3794 115.412 11.2072C115.135 11.0338 114.833 10.9031 114.518 10.8192C113.619 10.5897 112.672 10.6263 111.793 10.9248C111.349 11.0586 110.938 11.2833 110.584 11.585C110.246 11.8676 109.976 12.223 109.792 12.625C109.609 13.0273 109.512 13.4635 109.506 13.9058C109.5 14.3482 109.585 14.787 109.756 15.1944C109.921 15.5645 110.166 15.8932 110.471 16.1572C110.8 16.4416 111.163 16.685 111.549 16.8823C112.003 17.0971 112.475 17.2698 112.96 17.3983C113.103 17.4308 113.246 17.4694 113.395 17.51C113.544 17.5507 113.689 17.5892 113.836 17.6237C114.097 17.6872 114.35 17.7813 114.588 17.904C114.789 18.0007 114.967 18.1391 115.11 18.3103C115.236 18.4965 115.301 18.7174 115.297 18.9425C115.293 19.1676 115.22 19.386 115.088 19.5676C114.941 19.7568 114.761 19.9167 114.556 20.0388C114.346 20.1618 114.12 20.2548 113.885 20.3151C113.487 20.4055 113.074 20.4055 112.676 20.3151C112.467 20.2607 112.264 20.1844 112.072 20.0876C111.876 19.9892 111.694 19.8663 111.529 19.722C111.379 19.5534 111.249 19.368 111.14 19.1695C111.089 19.0512 111.013 18.9457 110.916 18.8607C110.84 18.7963 110.746 18.756 110.647 18.7448C110.547 18.7336 110.448 18.752 110.358 18.7978L109.552 19.1817C109.484 19.2107 109.422 19.252 109.369 19.3035C109.325 19.3475 109.29 19.3992 109.264 19.4559C109.233 19.5367 109.226 19.625 109.244 19.7098C109.252 19.7951 109.273 19.8787 109.307 19.9576C109.446 20.326 109.644 20.669 109.893 20.9732C110.169 21.305 110.506 21.5808 110.884 21.7857C111.238 21.9985 111.623 22.1528 112.025 22.2427C112.949 22.4633 113.914 22.4324 114.822 22.1533C115.301 22.0184 115.75 21.7892 116.141 21.479C116.519 21.1916 116.823 20.8168 117.026 20.3862C117.226 19.9573 117.33 19.4897 117.331 19.016C117.333 18.5423 117.232 18.0741 117.034 17.644Z" fill="white"/>
</g>
<defs>
<clipPath id="clip0_1_10312">
<rect width="117.188" height="25" fill="white" transform="translate(0.234375 0.516846)"/>
</clipPath>
</defs>
</svg>
