<svg width="93" height="26" viewBox="0 0 93 26" fill="none" xmlns="http://www.w3.org/2000/svg">
<g clip-path="url(#clip0_1_10323)">
<path d="M22.7435 6.76822C22.7433 6.76778 22.7429 6.76697 22.7425 6.76614C22.7414 6.7647 22.7402 6.76284 22.7392 6.7614C22.7135 6.71853 22.6862 6.67711 22.6569 6.63671C22.6493 6.6262 22.6412 6.61631 22.6331 6.6058C22.61 6.5755 22.5862 6.54603 22.561 6.51738C22.5468 6.5011 22.5316 6.48523 22.517 6.46957C22.4965 6.44855 22.4759 6.42773 22.4543 6.40733C22.4345 6.38878 22.414 6.37044 22.3936 6.35313C22.3746 6.33726 22.3558 6.3218 22.3363 6.30655C22.3128 6.288 22.2884 6.27048 22.2638 6.25317C22.2451 6.2404 22.2268 6.22783 22.2076 6.21546C22.1813 6.19897 22.1548 6.18331 22.1278 6.16826C22.1085 6.15734 22.0891 6.14683 22.0693 6.13673C22.0412 6.12251 22.0127 6.10891 21.9837 6.09655C21.9641 6.08789 21.9445 6.07923 21.9242 6.0712C21.8932 6.05903 21.8616 6.04812 21.8299 6.0376C21.8117 6.03183 21.7938 6.02585 21.7754 6.0207C21.7386 6.00998 21.7012 6.0005 21.6636 5.99247C21.6504 5.98979 21.6373 5.98649 21.6241 5.98401C21.5776 5.97495 21.5303 5.96815 21.4834 5.963C21.4784 5.96258 21.474 5.96176 21.4693 5.96135C21.1334 5.92775 20.7843 5.99164 20.4695 6.1695L11.6933 11.1337L5.41689 7.58328L11.6985 4.02985L15.8865 6.39723C16.6824 6.84672 17.7002 6.58003 18.1599 5.80039C18.6195 5.02053 18.3467 4.02305 17.5507 3.57294L12.531 0.735252C12.0161 0.444044 11.3816 0.444044 10.8668 0.735252L1.29621 6.14868C1.03393 6.28738 0.805337 6.49492 0.645363 6.76614C0.185489 7.54622 0.458106 8.54328 1.25405 8.99316L10.8616 14.4282C10.863 14.4291 10.8643 14.4293 10.8655 14.4301C10.9159 14.4583 10.9682 14.4825 11.0211 14.5051C11.0358 14.5115 11.0499 14.5197 11.0645 14.5255C11.0964 14.5383 11.1295 14.5472 11.1619 14.5577C11.3358 14.6152 11.5143 14.6469 11.692 14.6469C11.6925 14.6469 11.6931 14.6469 11.6937 14.6469C11.6939 14.6469 11.6945 14.6469 11.6952 14.6469C11.8769 14.6469 12.0595 14.6142 12.2366 14.554C12.265 14.5443 12.2941 14.537 12.322 14.5257C12.3388 14.5192 12.3549 14.5097 12.3716 14.5024C12.4225 14.4804 12.4729 14.4573 12.5213 14.4301C12.5227 14.4293 12.5242 14.4291 12.5256 14.4282L19.6399 10.4045V17.5112L11.6958 22.0042L3.75267 17.5112V13.0177C3.75267 12.1173 3.00736 11.3875 2.08864 11.3875C1.16952 11.3875 0.424417 12.1173 0.424417 13.0177V18.4524C0.424417 19.0348 0.741264 19.5727 1.25632 19.8639L10.8639 25.2988C11.121 25.4441 11.4085 25.5168 11.6958 25.5168C11.9831 25.5168 12.2706 25.4441 12.5279 25.2988L22.1358 19.8639C22.6509 19.5727 22.9678 19.0348 22.9678 18.4524V7.58328C22.9678 7.2861 22.8855 7.00828 22.7435 6.76822Z" fill="white"/>
<path fill-rule="evenodd" clip-rule="evenodd" d="M31.5983 15.8907C32.1536 16.2506 32.7175 16.5175 33.2901 16.6917C33.8628 16.8658 34.4267 16.9528 34.982 16.9528C35.5373 16.9528 35.9855 16.8252 36.3268 16.5698C36.6681 16.3144 36.8387 15.9836 36.8387 15.5773C36.8387 15.2407 36.7028 14.9767 36.4309 14.7852C36.159 14.5937 35.8178 14.4224 35.4071 14.2715C34.9964 14.1207 34.554 13.9668 34.0796 13.8102C33.6054 13.6535 33.1629 13.4445 32.7523 13.1833C32.3416 12.9222 32.0003 12.5768 31.7285 12.1474C31.4566 11.7179 31.3207 11.155 31.3207 10.4585C31.3207 9.9246 31.4306 9.4371 31.6504 8.99604C31.8702 8.55497 32.1767 8.17479 32.57 7.8556C32.9634 7.53641 33.4348 7.28972 33.9842 7.11566C34.5337 6.94154 35.1381 6.85447 35.7975 6.85447C36.3528 6.85447 36.9052 6.90672 37.4546 7.01116C38.0042 7.11566 38.5565 7.27816 39.1118 7.49866V10.0407C38.5912 9.73891 38.0707 9.51547 37.5501 9.37035C37.0295 9.22529 36.5148 9.15272 36.0057 9.15272C35.4736 9.15272 35.0427 9.26879 34.713 9.50091C34.3834 9.7331 34.2185 10.0407 34.2185 10.4237C34.2185 10.7487 34.3544 11.0041 34.6263 11.1898C34.8981 11.3755 35.2365 11.5409 35.6413 11.686C36.0462 11.8311 36.4887 11.982 36.9688 12.1387C37.4488 12.2954 37.8913 12.5072 38.2962 12.7742C38.7011 13.0412 39.0395 13.3923 39.3113 13.8275C39.5832 14.2628 39.7191 14.8345 39.7191 15.5425C39.7191 16.0881 39.6063 16.5901 39.3807 17.0486C39.1552 17.5071 38.8428 17.8988 38.4437 18.2238C38.0446 18.5488 37.5674 18.8013 37.0122 18.9812C36.4569 19.1611 35.8496 19.251 35.1902 19.251C33.9756 19.251 32.7782 18.9899 31.5983 18.4676V15.8907ZM40.5624 6.52367H43.3908V10.946C44.1427 10.4005 44.9352 10.1277 45.768 10.1277C46.2192 10.1277 46.6356 10.2061 47.0174 10.3628C47.3991 10.5195 47.7288 10.74 48.0064 11.0244C48.2841 11.3088 48.501 11.6483 48.6572 12.0429C48.8133 12.4376 48.8914 12.867 48.8914 13.3313V19.0422H46.063V13.8537C46.063 13.4938 45.9502 13.1978 45.7247 12.9657C45.4991 12.7336 45.2128 12.6175 44.8657 12.6175C44.3452 12.6175 43.8535 12.8497 43.3908 13.3139V19.0422H40.5624V6.52367ZM50.0471 10.3367H52.8754V19.0422H50.0471V10.3367ZM49.9082 8.02104C49.9082 7.55672 50.0529 7.18241 50.3421 6.89804C50.6313 6.61362 51.0072 6.47144 51.4699 6.47144C51.9095 6.47144 52.2768 6.61362 52.5718 6.89804C52.8668 7.18241 53.0143 7.55672 53.0143 8.02104C53.0143 8.4621 52.8668 8.82772 52.5718 9.11791C52.2768 9.4081 51.9095 9.55316 51.4699 9.55316C51.0072 9.55316 50.6313 9.4081 50.3421 9.11791C50.0529 8.82772 49.9082 8.4621 49.9082 8.02104ZM60.0176 14.6894C60.0176 14.051 59.8585 13.5373 59.5404 13.1485C59.2223 12.7597 58.8087 12.5653 58.2997 12.5653C57.7907 12.5653 57.3338 12.7684 56.9289 13.1747V16.2042C57.3338 16.6104 57.7907 16.8135 58.2997 16.8135C58.8087 16.8135 59.2223 16.6162 59.5404 16.2215C59.8585 15.8269 60.0176 15.3162 60.0176 14.6894ZM54.1005 10.3367H56.9289V10.8068C57.5883 10.3541 58.265 10.1277 58.9591 10.1277C59.5375 10.1277 60.0696 10.2409 60.5555 10.4672C61.0414 10.6936 61.4578 11.007 61.8048 11.4074C62.1519 11.8079 62.4208 12.2867 62.6117 12.8438C62.8029 13.401 62.8982 14.0162 62.8982 14.6894C62.8982 15.3626 62.8029 15.9778 62.6117 16.535C62.4208 17.0921 62.1519 17.5709 61.8048 17.9713C61.4578 18.3718 61.0414 18.6852 60.5555 18.9115C60.0696 19.1379 59.5375 19.251 58.9591 19.251C58.265 19.251 57.5883 19.0247 56.9289 18.572V22.8551H54.1005V10.3367ZM66.6742 16.8135H68.5304C68.9701 16.8135 69.3314 16.683 69.6148 16.4218C69.8982 16.1606 70.0402 15.8269 70.0402 15.4207C70.0402 15.0144 69.8982 14.6807 69.6148 14.4195C69.3314 14.1583 68.9701 14.0278 68.5304 14.0278H66.6742V16.8135ZM66.6742 11.8688H68.2874C68.6923 11.8688 69.028 11.747 69.294 11.5032C69.56 11.2595 69.6933 10.9518 69.6933 10.5804C69.6933 10.1973 69.56 9.88691 69.294 9.64891C69.028 9.41097 68.6923 9.29204 68.2874 9.29204H66.6742V11.8688ZM63.9148 7.06341H68.8256C69.3576 7.06341 69.8434 7.14466 70.2832 7.30716C70.7229 7.46966 71.1041 7.69604 71.428 7.98616C71.7519 8.27635 72.0036 8.61878 72.183 9.01341C72.3624 9.4081 72.4521 9.83753 72.4521 10.3018C72.4521 10.8938 72.3132 11.422 72.0354 11.8862C71.7582 12.3505 71.3763 12.693 70.8905 12.9135C71.5152 13.1457 71.998 13.5083 72.3393 14.0017C72.6807 14.495 72.8513 15.0608 72.8513 15.6992C72.8513 16.1867 72.7585 16.6365 72.5735 17.0486C72.3885 17.4607 72.1313 17.8147 71.8011 18.1107C71.4716 18.4067 71.0786 18.6358 70.6214 18.7983C70.1642 18.9609 69.664 19.0422 69.1202 19.0422H63.9148V7.06341ZM73.1914 14.6894C73.1914 14.0162 73.3067 13.401 73.5384 12.8438C73.7695 12.2867 74.0934 11.8079 74.5101 11.4074C74.9268 11.007 75.4208 10.6936 75.9938 10.4672C76.5662 10.2409 77.1941 10.1277 77.8762 10.1277C78.5589 10.1277 79.1867 10.2409 79.7592 10.4672C80.3316 10.6936 80.8231 11.007 81.2342 11.4074C81.6447 11.8079 81.9654 12.2867 82.1972 12.8438C82.4282 13.401 82.5441 14.0162 82.5441 14.6894C82.5441 15.351 82.4282 15.9633 82.1972 16.5262C81.9654 17.0892 81.6447 17.5709 81.2342 17.9713C80.8231 18.3718 80.3316 18.6852 79.7592 18.9115C79.1867 19.1379 78.5589 19.251 77.8762 19.251C77.1941 19.251 76.5662 19.1379 75.9938 18.9115C75.4208 18.6852 74.9268 18.3718 74.5101 17.9713C74.0934 17.5709 73.7695 17.0892 73.5384 16.5262C73.3067 15.9633 73.1914 15.351 73.1914 14.6894ZM76.0891 14.6894C76.0891 15.351 76.2542 15.882 76.5837 16.2825C76.9132 16.683 77.3442 16.8832 77.8762 16.8832C78.3969 16.8832 78.8248 16.683 79.1606 16.2825C79.4957 15.882 79.6639 15.351 79.6639 14.6894C79.6639 14.0278 79.4957 13.4967 79.1606 13.0963C78.8248 12.6958 78.3969 12.4956 77.8762 12.4956C77.3442 12.4956 76.9132 12.6958 76.5837 13.0963C76.2542 13.4967 76.0891 14.0278 76.0891 14.6894ZM89.148 14.6894C89.148 14.051 88.9891 13.5373 88.6708 13.1485C88.3532 12.7597 87.9396 12.5653 87.4307 12.5653C86.9211 12.5653 86.4646 12.7684 86.0597 13.1747V16.2042C86.4646 16.6104 86.9211 16.8135 87.4307 16.8135C87.9396 16.8135 88.3532 16.6162 88.6708 16.2215C88.9891 15.8269 89.148 15.3162 89.148 14.6894ZM83.2312 6.52367H86.0597V10.8068C86.7187 10.3541 87.3958 10.1277 88.0897 10.1277C88.6683 10.1277 89.2003 10.2409 89.6861 10.4672C90.172 10.6936 90.5887 11.007 90.9357 11.4074C91.2826 11.8079 91.5517 12.2867 91.7423 12.8438C91.9335 13.401 92.0288 14.0162 92.0288 14.6894C92.0288 15.3626 91.9335 15.9778 91.7423 16.535C91.5517 17.0921 91.2826 17.5709 90.9357 17.9713C90.5887 18.3718 90.172 18.6852 89.6861 18.9115C89.2003 19.1379 88.6683 19.251 88.0897 19.251C87.3958 19.251 86.7187 19.0247 86.0597 18.572V19.0422H83.2312V6.52367Z" fill="white"/>
</g>
<defs>
<clipPath id="clip0_1_10323">
<rect width="92.1875" height="25" fill="white" transform="translate(0.421875 0.516846)"/>
</clipPath>
</defs>
</svg>
